<svg xmlns="http://www.w3.org/2000/svg" viewBox="0 0 1557.42537 514.02716"><defs><style>.a{fill:#707070;}.b{fill:#662c91;}</style></defs><path class="a" d="M1496.39,265.6402c-.01-4.82-.25-9.66-.74-14.46-2.29-22.4-15.99-37.36-38.12-41.31-17.48-3.12-33.65.7-48.68,9.99-7.80005,4.82-14.74005,10.72-22.02,17.31-1.16-7.28-2.26-13.93-3.26-20.6-.41-2.71-1.03-4.4-4.58-4.28-9.82.31006-19.66.27-29.48.02-3.49-.09-4.07,1.2-4.06,4.31q.12,84.43506-.02,168.87c0,3.14.89,3.89,3.92,3.84,11.66-.17,23.31994-.24,34.98.03,4.04.09,5.3-.87,5.28-5.13-.18-36.63995-.11-73.28-.08-109.92.01-1.91-.58-3.93,1.13-5.64,9.03-9.03,18.75-17,31.53-20.12,16.69-4.07995,27.9,3.72,29.83,20.71a74.69952,74.69952,0,0,1,.38,8.47c.03,35.64.08,71.28-.06,106.91-.02,3.63995.74,4.82,4.59,4.72,11.49-.28,23-.3,34.48.01,4.28.11,5.12-1.29,5.11-5.32C1496.36,344.5802,1496.45,305.11017,1496.39,265.6402Z"/><path class="a" d="M1294.73,232.76019c-18.01-18.62-40.56994-25.28-65.86-23.64-27.02,1.76-48.31,13.77-62.7,36.97-10.4,16.75-13.84,35.43-14.09,56.15.3,5.36005.58,11.99,1.57,18.6,5.43,36.41,29.11,67.47,72.07,71.73,35.71,3.54,70.08-12.3,85.17-49.08,8.44-20.6,9.67-41.97,6.18-63.74C1314.22,261.94019,1307.41,245.86017,1294.73,232.76019Zm-25.99,103.26c-6.85,13.48-17.79,20.78-33.07,21.01-15.24.22-26.48-6.97-32.75-20.39-11.00994-23.54-11.09-47.7-.25-71.36,5.83-12.75,16.28-19.88,30.68006-20.41,15.1-.55,26.3,6.03,33.83,18.89,6.84,11.69,8.77,24.59,8.66,37.92C1275.84,313.62018,1274.22,325.25018,1268.74,336.0202Z"/><path class="a" d="M1013.51,291.93018c-9.94-4.76-20.4-7.96-30.98-10.86-9.93-2.72-20.05005-4.96-29.11-10.11-7.58-4.31-10.4-11.39-7.45-18.44,2.25-5.39,6.84-8.05,12.21-9.35,9.58-2.32,19.19-1.35,28.73005.46,13.49,2.55,26.1,7.58,38.58,14.19,1.83-11.26,3.39-21.78,5.31-32.25.64-3.46-.37-4.93-3.6-6.17a156.69631,156.69631,0,0,0-68.08-10.12,69.63347,69.63347,0,0,0-28.6,8.1c-17.68,9.68-26.3,24.77-26.34,44.85-.03,20.19,9.06,34.54,27.37,43.17005,11.04,5.2,22.64,8.6,34.38,11.7,9.15,2.41,18.43,4.51,26.69,9.42,6.03,3.57,8.65,8.91,8.2,15.9-.44,6.69-3.99,11.09-9.8,13.92a40.23539,40.23539,0,0,1-17.44,3.65c-22.09.21-42.16-6.66-61.08-17.56-1.68-.97-3.11-2.55-5.42-2.61-1.74,10.68-3.43,21.33-5.24,31.96-.47,2.76-.05,4.54,2.84,5.88,28.5,13.17993,58.14,18.87994,89.36,13.22,27.9-5.05,44.2-20.81,47.09-46.73C1044.04,318.01019,1035.03,302.25018,1013.51,291.93018Z"/><path class="a" d="M852.93,291.99017a189.35168,189.35168,0,0,0-30.97-10.88c-9.61-2.63-19.34-4.9-28.26-9.55-6.05-3.15-10.12-7.64-9.45-14.98.62-6.65,5.2-11.37,12.96-13.4,7.38-1.92,14.89-1.59,22.34-.62,15.82,2.05,30.59,7.43,45.21,15.35,1.79-11.35,3.27-22.06,5.27-32.67.65-3.46-.47-4.57-3.37-5.7a154.12589,154.12589,0,0,0-68.52-10.22,72.735,72.735,0,0,0-33.72,11.21c-27.58,17.41-30.22,68.22,4.75,84.12a209.21052,209.21052,0,0,0,32.33,11.47c9.76,2.63,19.72,4.72,28.79,9.48,6.9,3.61,10.3,9.11,9.71,17.02-.57,7.62-5.05,12-11.76,14.58-8.47,3.25-17.26,3.28-26.1,2.36-18.86-1.95-36.15-8.45-52.23-18.32-2.67-1.65-3.75-1.87-4.24006,1.9q-1.845,14.085-4.55,28.06c-.69,3.61.26,5.3,3.55,6.84a155.47175,155.47175,0,0,0,57.61005,14.77c17.61.98,34.99-.53,51.05-8.74,19.62-10.02,27.61-26.74,27.54-48.21C880.81,315.21021,871.56,300.74017,852.93,291.99017Z"/><path class="a" d="M620.5,163.10022c6.5-.19,12.93.62,20.08,1.28-1.81-11.31-3.62-21.94-5.17-32.61-.41-2.82-1.5-3.71-4.34-3.98a145.57158,145.57158,0,0,0-28.92.25c-29.47,3.13-45.94,20.9-46.42,50.5q-.24,14.98508,0,29.98c.05,3.06-.83,4.05-3.91,3.94-6.16-.22-12.33.04-18.49-.11-2.52-.06006-3.53.58-3.49,3.32.15,9.82.17,19.66,0,29.48-.05,2.85,1.13,3.26,3.52,3.21,5.67-.13,11.36.3,16.99-.15,4.57995-.36,5.43,1.24,5.41,5.54-.16,43.64-.05,87.28-.18,130.93-.02,3.68.8,4.78,4.61,4.68,11.16-.28,22.33-.35,33.48.02,4.67.16,5.66-1.26,5.65-5.73-.18-43.47-.06-86.95-.19-130.43-.02-3.9.94-5.12,4.95-5,9.99.3,20-.01,29.99.16,3.14.05,4.43-.48,3.81-4.06-1.65-9.5-3-19.06-4.35-28.61-.38-2.71-1.66-3.42005-4.30005-3.37-8.81994.16-17.66,0-26.48993.1-2.42.02-3.64-.44-3.58-3.27.17-8.49-.19-17,.15-25.48C599.85,170.11017,606.9,163.51019,620.5,163.10022Z"/><path class="a" d="M702.73,212.3302c-11.49.18-22.99.26-34.48-.03-4.23-.11-5.58.75-5.54,5.35.26,27.81.13,55.63.13,83.44q0,41.97-.05,83.93994c-.01,2.95.32,4.4,3.91,4.32q18.24-.36,36.48,0c3.34.06,3.72-1.17,3.71-4.01q-.105-84.435.03-168.87994C706.92,213.12018,705.97,212.2702,702.73,212.3302Z"/><path class="a" d="M1118.67,216.56018c.01-3.26-.84-4.29-4.15-4.23-11.49.18-22.99.26-34.47-.03-4.21-.11-5.62.71-5.58,5.35.26,27.62.13,55.26.13,82.89,0,28.13.06,56.26-.08,84.39-.02,3.45.78,4.49,4.35,4.42,11.82-.24,23.64-.16,35.46-.04,2.98.04,4.37-.36,4.36-3.97Q1118.495,300.95023,1118.67,216.56018Z"/><path class="a" d="M685.1,132.23016c-14.84.07-26.23,11.2-26.25,25.66-.02,14.11,11.31994,24.93,26.23,25.02,14.83.09,26.09-10.68006,26.12-25C711.23,143.30017,699.91,132.16022,685.1,132.23016Z"/><path class="a" d="M1096.97,132.23016c-14.98-.06-26.28,10.83-26.37,25.41-.09,14.53,11.17,25.34,26.35,25.27,14.68-.07,25.8-10.71,25.87-24.75C1122.89,143.43018,1111.79,132.30017,1096.97,132.23016Z"/><path class="b" d="M230.97,381.69019a18.1263,18.1263,0,1,0-18.01,18.17A18.14223,18.14223,0,0,0,230.97,381.69019Z"/><path class="b" d="M387.68,324.8302a18.32725,18.32725,0,1,0-18.36,18.35A18.20677,18.20677,0,0,0,387.68,324.8302Z"/><path class="b" d="M145.26,342.82019a18.31026,18.31026,0,1,0-18.36-18.48A18.48608,18.48608,0,0,0,145.26,342.82019Z"/><path class="b" d="M283.86005,138.61017a18.13562,18.13562,0,1,0,17.89-18.3A18.21322,18.21322,0,0,0,283.86005,138.61017Z"/><path class="b" d="M369.6,213.92017a18.31641,18.31641,0,1,0-18-18.68A18.22025,18.22025,0,0,0,369.6,213.92017Z"/><path class="b" d="M257.31,371.18018a18.29983,18.29983,0,1,0,17.89,18.28A18.27527,18.27527,0,0,0,257.31,371.18018Z"/><path class="b" d="M257.68,148.98016a18.301,18.301,0,1,0-18.06-18.1A18.19926,18.19926,0,0,0,257.68,148.98016Z"/><path class="b" d="M174.56,142.48016a18.28007,18.28007,0,1,0,18.23,18.09A18.44975,18.44975,0,0,0,174.56,142.48016Z"/><path class="b" d="M319.74005,381.54016a18.3247,18.3247,0,0,0-36.64,0,18.3207,18.3207,0,1,0,36.64,0Z"/><path class="b" d="M195.11005,138.57019a18.3206,18.3206,0,1,0,18.39-18.42A18.48188,18.48188,0,0,0,195.11005,138.57019Z"/><path class="b" d="M340.47,377.69019a18.28334,18.28334,0,1,0-18.36-18.49A18.50438,18.50438,0,0,0,340.47,377.69019Z"/><path class="b" d="M145.31,213.25018a18.13213,18.13213,0,1,0-18.07-18.1A18.1,18.1,0,0,0,145.31,213.25018Z"/><path class="b" d="M340.58,143.03021a18.12265,18.12265,0,1,0,18.43,18.07A17.85176,17.85176,0,0,0,340.58,143.03021Z"/><path class="b" d="M174.23,377.1402a18.1318,18.1318,0,1,0-18.4-18.13A17.8408,17.8408,0,0,0,174.23,377.1402Z"/><path class="b" d="M111.83,237.2002a18.1406,18.1406,0,1,0,18.03-18.09A17.941,17.941,0,0,0,111.83,237.2002Z"/><path class="b" d="M385.65,219.7702c-10.43-.29-18.67,7.46-18.83,17.69a18.1451,18.1451,0,1,0,36.28.85A17.81126,17.81126,0,0,0,385.65,219.7702Z"/><path class="b" d="M402.96,282.98016a18.13034,18.13034,0,0,0-36.26-.22,18.13047,18.13047,0,1,0,36.26.22Z"/><path class="b" d="M129.84,300.40021a18.16006,18.16006,0,1,0-18.1-17.93A17.85949,17.85949,0,0,0,129.84,300.40021Z"/><path class="b" d="M378.82,351.05017a12.99505,12.99505,0,0,0-.06,25.99,12.99515,12.99515,0,1,0,.06-25.99Z"/><path class="b" d="M135.87,169.12018a12.99691,12.99691,0,0,0,.43-25.99,12.99708,12.99708,0,1,0-.43,25.99Z"/><path class="b" d="M336.07,386.16016a13.25767,13.25767,0,0,0-13.19,12.95,12.91239,12.91239,0,0,0,12.92,13.06,12.70421,12.70421,0,0,0,13.1-12.79A13.03206,13.03206,0,0,0,336.07,386.16016Z"/><path class="b" d="M178.83,134.01019a13.001,13.001,0,0,0,13.1-12.94,12.67709,12.67709,0,0,0-12.81-13.07,12.9275,12.9275,0,0,0-13.22,12.78A13.31681,13.31681,0,0,0,178.83,134.01019Z"/><path class="b" d="M419.95,316.48016a12.99444,12.99444,0,0,0-12.72-13.29,13.28629,13.28629,0,0,0-13.29,12.85,12.991,12.991,0,0,0,12.86005,13.16A12.64715,12.64715,0,0,0,419.95,316.48016Z"/><path class="b" d="M94.84,203.94019a13.00846,13.00846,0,0,0,12.97,13.07,13.2494,13.2494,0,0,0,13.05-13.08,12.92614,12.92614,0,0,0-13.06-12.92A12.67868,12.67868,0,0,0,94.84,203.94019Z"/><path class="b" d="M286.18,116.0802a13.1627,13.1627,0,0,0,13.66-12.42,12.96874,12.96874,0,0,0-12.42-13.56,12.75667,12.75667,0,0,0-13.58,12.31A13.02394,13.02394,0,0,0,286.18,116.0802Z"/><path class="b" d="M106.88,300.10022a12.97606,12.97606,0,0,0-13.13,12.87994,12.71939,12.71939,0,0,0,12.77,13.13,12.974,12.974,0,0,0,13.24-12.77A13.22794,13.22794,0,0,0,106.88,300.10022Z"/><path class="b" d="M228.05005,404.05017a13.23119,13.23119,0,0,0-13.1,13.04,12.97632,12.97632,0,0,0,13.03,12.98,12.71446,12.71446,0,0,0,12.98-12.91A12.99186,12.99186,0,0,0,228.05005,404.05017Z"/><path class="b" d="M110.69,258.42017a13.33352,13.33352,0,0,0-13.13-13.05,12.9569,12.9569,0,0,0-12.87,13.13,12.568,12.568,0,0,0,12.95,12.87A12.968,12.968,0,0,0,110.69,258.42017Z"/><path class="b" d="M218.21,102.24017a12.90281,12.90281,0,0,0,12.86,13.11,12.59045,12.59045,0,0,0,13.13-12.7,12.99505,12.99505,0,0,0-12.71-13.3A13.29707,13.29707,0,0,0,218.21,102.24017Z"/><path class="b" d="M296.69,417.57019a12.97639,12.97639,0,0,0-13.24-12.78,12.63865,12.63865,0,0,0-12.77,13.07,12.97929,12.97929,0,0,0,13.06006,12.94A13.36741,13.36741,0,0,0,296.69,417.57019Z"/><path class="b" d="M408.16,220.0202a12.88207,12.88207,0,0,0,12.94-13.04,12.61964,12.61964,0,0,0-12.88-12.96,12.99459,12.99459,0,0,0-13.13,12.9A13.35891,13.35891,0,0,0,408.16,220.0202Z"/><path class="b" d="M175.97,384.71021a12.92741,12.92741,0,0,0-12.99,13,13.31612,13.31612,0,0,0,13.16,13,12.95926,12.95926,0,0,0,12.85-13.16A12.63653,12.63653,0,0,0,175.97,384.71021Z"/><path class="b" d="M404.19,261.62018a13.29382,13.29382,0,0,0,13,13.15,12.98859,12.98859,0,0,0,13.01-13,12.616,12.616,0,0,0-12.86-12.99A12.94877,12.94877,0,0,0,404.19,261.62018Z"/><path class="b" d="M338.64,135.47022a12.925,12.925,0,0,0,13.21-12.78,13.28639,13.28639,0,0,0-12.9-13.24,13.03354,13.03354,0,0,0-13.12,12.92A12.75054,12.75054,0,0,0,338.64,135.47022Z"/><path class="b" d="M367.88,158.74017a13.20341,13.20341,0,0,0,13.14,12.96,12.94369,12.94369,0,0,0,12.87-13.13,12.7536,12.7536,0,0,0-13.04-12.86A12.9865,12.9865,0,0,0,367.88,158.74017Z"/><path class="b" d="M146.9,361.49017a12.99561,12.99561,0,0,0-12.96-13.05,13.21384,13.21384,0,0,0-13.05,13.07,12.92589,12.92589,0,0,0,13.05,12.93A12.74934,12.74934,0,0,0,146.9,361.49017Z"/><path class="b" d="M415.22,178.21021a10.44719,10.44719,0,0,0,10.38-10.44,10.83814,10.83814,0,0,0-10.62-10.39,10.47538,10.47538,0,0,0-10.22,10.62A10.059,10.059,0,0,0,415.22,178.21021Z"/><path class="b" d="M258.72,432.15015a10.71093,10.71093,0,0,0-10.7,10.26,10.4756,10.4756,0,0,0,10.26,10.6,10.22631,10.22631,0,0,0,10.59-10.15A10.46892,10.46892,0,0,0,258.72,432.15015Z"/><path class="b" d="M375.72,388.94019a10.44121,10.44121,0,0,0-10.62,10.21,10.83614,10.83614,0,0,0,10.38,10.62,10.462,10.462,0,0,0,10.46-10.37A10.09614,10.09614,0,0,0,375.72,388.94019Z"/><path class="b" d="M256.45,88.00018a10.64007,10.64007,0,0,0,10.39-10.56,10.47595,10.47595,0,0,0-20.95.16A10.68894,10.68894,0,0,0,256.45,88.00018Z"/><path class="b" d="M66.92005,229.5202a10.47027,10.47027,0,1,0,20.94-.15,10.471,10.471,0,0,0-20.94.15Z"/><path class="b" d="M447.84,290.90021a10.44443,10.44443,0,0,0-10.16-10.68,10.74161,10.74161,0,0,0-10.68994,10.29,10.47456,10.47456,0,0,0,10.3,10.56A10.19027,10.19027,0,0,0,447.84,290.90021Z"/><path class="b" d="M194.14,99.23016a10.34775,10.34775,0,0,0,10.34-10.46,10.67,10.67,0,0,0-10.56-10.37,10.439,10.439,0,0,0-10.22,10.6A10.09375,10.09375,0,0,0,194.14,99.23016Z"/><path class="b" d="M77.64,282.31018a10.63226,10.63226,0,0,0-10.33,10.61,10.33374,10.33374,0,0,0,10.56,10.22,10.05365,10.05365,0,0,0,10.2-10.45A10.41872,10.41872,0,0,0,77.64,282.31018Z"/><path class="b" d="M98.61005,180.12018a10.13924,10.13924,0,0,0,10.42-10.27,10.40446,10.40446,0,0,0-10.21-10.6,10.653,10.653,0,0,0-10.57,10.38A10.46685,10.46685,0,0,0,98.61005,180.12018Z"/><path class="b" d="M416.1,340.06018a10.22533,10.22533,0,0,0-10.34,10.41,10.43731,10.43731,0,0,0,10.36,10.47,10.72349,10.72349,0,0,0,10.47-10.49A10.54563,10.54563,0,0,0,416.1,340.06018Z"/><path class="b" d="M139.5,131.23016a10.40743,10.40743,0,0,0,10.25-10.56,10.71417,10.71417,0,0,0-10.7-10.27,10.56684,10.56684,0,0,0-10.17,10.72A10.20159,10.20159,0,0,0,139.5,131.23016Z"/><path class="b" d="M151.11005,400.85016a10.31856,10.31856,0,1,0-10.54,10.17A10.19922,10.19922,0,0,0,151.11005,400.85016Z"/><path class="b" d="M437.1,237.78021a10.72327,10.72327,0,0,0,10.53-10.43,10.43724,10.43724,0,0,0-10.46-10.37006,10.12734,10.12734,0,0,0-10.39,10.3A10.39079,10.39079,0,0,0,437.1,237.78021Z"/><path class="b" d="M363.72,119.67017a10.44268,10.44268,0,0,0,10.46,10.37,10.694,10.694,0,0,0,10.35-10.6,10.51368,10.51368,0,0,0-10.59-10.29A10.21866,10.21866,0,0,0,363.72,119.67017Z"/><path class="b" d="M99.99005,341.93018a10.07306,10.07306,0,0,0-10.51,10.27,10.302,10.302,0,1,0,20.6.39A10.04846,10.04846,0,0,0,99.99005,341.93018Z"/><path class="b" d="M320.93,420.94019a10.059,10.059,0,0,0-10.31994,10.45,10.31518,10.31518,0,1,0,20.63.04A10.136,10.136,0,0,0,320.93,420.94019Z"/><path class="b" d="M319.18,98.48016A10.31677,10.31677,0,1,0,308.6,88.3302,10.10049,10.10049,0,0,0,319.18,98.48016Z"/><path class="b" d="M196.19,421.69019a10.30665,10.30665,0,1,0,10.05,10.21A10.02093,10.02093,0,0,0,196.19,421.69019Z"/><path class="b" d="M461.88,253.11017a8.023,8.023,0,0,0-7.95,7.36,7.87419,7.87419,0,1,0,15.73005.69A8.03528,8.03528,0,0,0,461.88,253.11017Z"/><path class="b" d="M65.09,321.22022a7.86656,7.86656,0,0,0-.18,15.73,7.86554,7.86554,0,1,0,.18-15.73Z"/><path class="b" d="M293.68,66.9502a8.18447,8.18447,0,0,0,8-7.89,8.0672,8.0672,0,0,0-8.03-7.82,7.97982,7.97982,0,0,0-7.71,7.59A8.10416,8.10416,0,0,0,293.68,66.9502Z"/><path class="b" d="M60.89,259.48016a7.94351,7.94351,0,0,0-7.59-8.21,7.873,7.873,0,0,0-.62006,15.73A7.87445,7.87445,0,0,0,60.89,259.48016Z"/><path class="b" d="M222.47,66.46021a7.70042,7.70042,0,1,0-7.46-7.73005A7.79353,7.79353,0,0,0,222.47,66.46021Z"/><path class="b" d="M413.56,384.22015a7.86139,7.86139,0,1,0,7.47,7.7A7.72756,7.72756,0,0,0,413.56,384.22015Z"/><path class="b" d="M101.61005,135.98016a7.85508,7.85508,0,1,0-7.84-7.84A7.69571,7.69571,0,0,0,101.61005,135.98016Z"/><path class="b" d="M220.97,453.2002a8.09205,8.09205,0,0,0-7.72,7.63,8.00466,8.00466,0,0,0,7.72,8.09,7.846,7.846,0,0,0,7.9-7.84A7.9449,7.9449,0,0,0,220.97,453.2002Z"/><path class="b" d="M360.78,91.31018a7.67585,7.67585,0,1,0-8.09-7.51A7.35968,7.35968,0,0,0,360.78,91.31018Z"/><path class="b" d="M358.51,429.75018a7.6916,7.6916,0,1,0,.31,15.38,7.69739,7.69739,0,1,0-.31-15.38Z"/><path class="b" d="M65.44,197.13019a7.79931,7.79931,0,0,0,8.14-7.58,7.8462,7.8462,0,0,0-15.68-.54A7.72607,7.72607,0,0,0,65.44,197.13019Z"/><path class="b" d="M449.5,198.9502a7.87549,7.87549,0,0,0,.78-15.73,7.87535,7.87535,0,1,0-.78,15.73Z"/><path class="b" d="M155.78,90.41022a7.69165,7.69165,0,1,0,.61-15.37006,7.69259,7.69259,0,1,0-.61,15.37006Z"/><path class="b" d="M414.71,137.19019a7.70191,7.70191,0,1,0-.28-15.4,7.70145,7.70145,0,1,0,.28,15.4Z"/><path class="b" d="M291.97,453.71021a7.69523,7.69523,0,1,0-.1,15.39,7.69892,7.69892,0,1,0,.1-15.38995Z"/><path class="b" d="M449.4,323.03021a7.7136,7.7136,0,1,0,7.48,8.21A7.51885,7.51885,0,0,0,449.4,323.03021Z"/><path class="b" d="M100.58,382.98016a7.47678,7.47678,0,0,0-7.97,7.67,7.69,7.69,0,1,0,15.38.04A7.462,7.462,0,0,0,100.58,382.98016Z"/><path class="b" d="M154.39,428.85016a7.67024,7.67024,0,1,0,.11,15.34,7.67022,7.67022,0,0,0-.11-15.34Z"/></svg>